<?xml version="1.0" standalone="no"?>
<!DOCTYPE svg PUBLIC "-//W3C//DTD SVG 20010904//EN"
 "http://www.w3.org/TR/2001/REC-SVG-20010904/DTD/svg10.dtd">
<svg version="1.0" xmlns="http://www.w3.org/2000/svg"
 width="1280.000000pt" height="1280.000000pt" viewBox="0 0 1280.000000 1280.000000"
 preserveAspectRatio="xMidYMid meet">
<metadata>
Created by potrace 1.14, written by Peter Selinger 2001-2017
</metadata>
<g transform="translate(0.000000,1280.000000) scale(0.100000,-0.100000)"
fill="#000000" stroke="none">
<path d="M2034 8472 c-18 -2 -40 -12 -50 -24 -18 -19 -19 -44 -19 -389 0 -278
3 -371 12 -380 8 -8 41 -13 79 -13 53 -1 68 3 79 18 11 14 14 71 13 263 0 134
2 247 6 250 3 4 6 4 6 1 0 -6 152 -448 168 -490 6 -14 16 -30 23 -34 20 -12
111 -14 139 -3 30 11 25 1 130 299 46 129 86 238 89 242 3 4 5 -112 4 -257 -2
-229 0 -265 14 -277 21 -17 138 -17 155 0 10 10 13 92 14 370 1 196 -2 367 -7
379 -15 40 -44 47 -187 44 -71 -2 -86 -26 -182 -284 -80 -215 -86 -226 -97
-200 -12 28 -45 118 -120 323 -52 143 -60 152 -159 159 -43 3 -93 5 -110 3z"/>
<path d="M3126 8469 c-21 -3 -42 -11 -49 -18 -9 -9 -12 -108 -14 -377 -1 -336
0 -366 17 -386 17 -21 24 -22 221 -23 112 -1 212 1 221 3 43 10 43 150 0 153
-9 1 -73 2 -142 3 l-125 1 0 90 0 89 114 1 c129 1 141 7 141 79 -1 69 -11 75
-141 78 l-114 3 -1 65 c0 36 1 70 3 76 2 6 48 10 129 9 154 -2 164 3 164 79 0
32 -5 58 -13 64 -15 13 -350 21 -411 11z"/>
<path d="M3888 8468 c-14 -5 -28 -17 -31 -26 -6 -19 -54 -158 -147 -422 -94
-270 -100 -288 -100 -314 0 -14 6 -28 13 -33 20 -13 131 -12 149 1 9 7 28 48
42 92 l26 79 124 -1 c68 -1 128 -4 133 -7 6 -4 20 -38 32 -76 12 -38 29 -75
38 -83 9 -7 45 -13 85 -14 97 -3 113 17 84 101 -23 63 -143 406 -194 553 -32
91 -53 137 -66 144 -25 14 -153 17 -188 6z m158 -466 c-7 -7 -145 -6 -152 1
-6 5 50 186 69 222 8 16 17 -1 49 -99 21 -65 36 -121 34 -124z"/>
<path d="M7038 8279 c-15 -4 -29 -5 -31 -2 -12 12 -264 -44 -398 -88 -112 -36
-359 -153 -359 -169 0 -6 -4 -9 -9 -6 -10 6 -112 -63 -255 -172 -55 -43 -124
-92 -151 -110 -52 -32 -213 -110 -243 -117 -9 -3 -48 -13 -87 -24 -111 -30
-173 -35 -465 -37 -151 -1 -284 -2 -295 -3 -21 -1 -21 -2 -20 -1143 l0 -1143
270 -1 c160 -1 303 -6 350 -13 206 -32 377 -100 543 -214 41 -29 81 -56 89
-62 8 -5 31 -24 50 -42 52 -47 180 -136 248 -173 33 -18 65 -36 70 -40 6 -4
44 -22 85 -40 166 -73 363 -129 550 -155 97 -14 377 -21 426 -11 12 2 45 7 74
11 29 4 60 8 69 10 179 38 220 51 371 110 149 58 353 177 468 272 15 13 31 23
36 23 5 0 6 3 2 7 -3 4 2 12 13 18 27 14 165 149 210 205 20 25 41 50 47 55
39 35 174 247 226 355 37 78 70 152 73 165 1 5 5 17 8 25 32 78 86 287 92 360
2 14 6 54 10 89 10 87 12 222 3 306 -12 122 -17 169 -23 195 -3 14 -7 36 -10
50 -12 61 -69 246 -100 323 -65 162 -156 324 -252 450 -101 131 -247 277 -354
353 -30 21 -56 41 -59 44 -24 25 -189 122 -285 168 -91 43 -293 114 -360 127
-11 2 -69 13 -130 25 -84 17 -153 23 -290 24 -99 2 -192 0 -207 -5z"/>
<path d="M10180 7539 c-19 -4 -51 -10 -70 -13 -19 -3 -51 -10 -70 -16 -19 -6
-46 -13 -60 -16 -35 -7 -241 -108 -265 -131 -11 -10 -35 -29 -53 -42 -144
-101 -289 -339 -346 -566 -61 -245 -52 -540 25 -776 19 -58 86 -207 99 -219 3
-3 12 -17 20 -32 20 -34 84 -112 135 -161 96 -94 286 -195 416 -223 150 -31
169 -33 309 -34 155 -1 217 6 338 36 211 52 357 144 500 317 12 15 22 29 22
32 0 2 14 26 30 52 31 49 83 174 95 230 l7 33 -244 -1 -243 -1 -38 -77 c-63
-125 -139 -193 -262 -233 -48 -15 -75 -19 -155 -20 -166 -3 -282 38 -383 135
-86 82 -165 242 -182 367 -2 14 -8 43 -13 65 -13 58 -8 337 7 418 31 163 115
328 202 399 102 82 207 117 357 116 204 -1 349 -83 423 -238 17 -36 34 -72 38
-80 7 -13 45 -15 239 -16 127 0 236 2 241 5 12 8 -8 97 -41 181 -74 189 -249
359 -453 441 -33 13 -64 25 -70 26 -5 1 -28 7 -50 13 -22 5 -56 13 -75 16 -19
3 -39 8 -44 12 -15 8 -348 10 -386 1z"/>
<path d="M1970 6739 l0 -769 230 0 230 0 0 769 0 768 -230 1 -230 1 0 -770z"/>
<path d="M2745 6389 l0 -1119 832 0 c659 0 833 3 834 13 1 16 1 353 0 394 l-1
33 -587 2 -588 3 -1 233 c-1 205 1 234 15 240 9 4 238 7 509 6 270 0 492 2
493 5 4 19 4 408 1 419 -3 9 -115 12 -513 12 l-509 0 2 223 3 222 580 5 580 5
0 210 -1 210 -825 2 -824 1 0 -1119z"/>
<path d="M1970 5503 l0 -233 230 0 230 0 -2 232 -3 232 -227 1 -228 0 0 -232z"/>
</g>
</svg>
